HIERARCHY
ROOT root
{
	OFFSET 0.000000 0.000000 0.000000
	CHANNELS 6 Xposition Yposition Zposition Zrotation Yrotation Xrotation
	JOINT lhip
	{
		OFFSET 0.058581 -0.082280 -0.017664
		CHANNELS 3 Zrotation Yrotation Xrotation
		JOINT lknee
		{
			OFFSET 0.043451 -0.386469 0.008037
			CHANNELS 3 Zrotation Yrotation Xrotation
			JOINT lankle
			{
				OFFSET -0.014790 -0.426874 -0.037428
				CHANNELS 3 Zrotation Yrotation Xrotation
				JOINT ltoe
				{
					OFFSET 0.041054 -0.060286 0.122042
					CHANNELS 3 Zrotation Yrotation Xrotation
					End Site
					{
						OFFSET 0.000000 0.000000 0.000000
					}
				}
			}
		}
	}
	JOINT rhip
	{
		OFFSET -0.060310 -0.090513 -0.013543
		CHANNELS 3 Zrotation Yrotation Xrotation
		JOINT rknee
		{
			OFFSET -0.043257 -0.383688 -0.004843
			CHANNELS 3 Zrotation Yrotation Xrotation
			JOINT rankle
			{
				OFFSET 0.019056 -0.420046 -0.034562
				CHANNELS 3 Zrotation Yrotation Xrotation
				JOINT rtoe
				{
					OFFSET -0.034840 -0.062106 0.130323
					CHANNELS 3 Zrotation Yrotation Xrotation
					End Site
					{
						OFFSET 0.000000 0.000000 0.000000
					}
				}
			}
		}
	}
	JOINT lowerback
	{
		OFFSET 0.004439 0.124404 -0.038385
		CHANNELS 3 Zrotation Yrotation Xrotation
		JOINT upperback
		{
			OFFSET 0.004488 0.137956 0.026820
			CHANNELS 3 Zrotation Yrotation Xrotation
			JOINT chest
			{
				OFFSET -0.002265 0.056032 0.002855
				CHANNELS 3 Zrotation Yrotation Xrotation
				JOINT lowerneck
				{
					OFFSET -0.013390 0.211636 -0.033468
					CHANNELS 3 Zrotation Yrotation Xrotation
					JOINT upperneck
					{
						OFFSET 0.010113 0.088937 0.050410
						CHANNELS 3 Zrotation Yrotation Xrotation
						End Site
						{
							OFFSET 0.000000 0.000000 0.000000
						}
					}
				}
				JOINT lclavicle
				{
					OFFSET 0.071702 0.114000 -0.018898
					CHANNELS 3 Zrotation Yrotation Xrotation
					JOINT lshoulder
					{
						OFFSET 0.122921 0.045205 -0.019046
						CHANNELS 3 Zrotation Yrotation Xrotation
						JOINT lelbow
						{
							OFFSET 0.255332 -0.015649 -0.022946
							CHANNELS 3 Zrotation Yrotation Xrotation
							JOINT lwrist
							{
								OFFSET 0.265709 0.012698 -0.007375
								CHANNELS 3 Zrotation Yrotation Xrotation
								End Site
								{
									OFFSET 0.000000 0.000000 0.000000
								}
							}
						}
					}
				}
				JOINT rclavicle
				{
					OFFSET -0.082954 0.112472 -0.023707
					CHANNELS 3 Zrotation Yrotation Xrotation
					JOINT rshoulder
					{
						OFFSET -0.113228 0.046853 -0.008472
						CHANNELS 3 Zrotation Yrotation Xrotation
						JOINT relbow
						{
							OFFSET -0.260127 -0.014369 -0.031269
							CHANNELS 3 Zrotation Yrotation Xrotation
							JOINT rwrist
							{
								OFFSET -0.269108 0.006794 -0.006027
								CHANNELS 3 Zrotation Yrotation Xrotation
								End Site
								{
									OFFSET 0.000000 0.000000 0.000000
								}
							}
						}
					}
				}
			}
		}
	}
}
MOTION
Frames: 16
Frame Time: 0.033333
-0.345011 2.701347 0.989237 -1.983594 1.307911 84.780127 7.166814 6.941634 12.089365 -4.192809 3.664676 -6.149690 3.040271 14.096507 -9.720405 0.000000 -0.000000 0.000000 -6.937536 -5.476828 -0.648199 2.085974 -8.871075 16.219836 4.914954 -8.390688 -8.657901 0.000000 -0.000000 0.000000 1.548431 -1.516938 1.570867 0.097337 -1.180994 9.264251 -1.601690 -1.857281 0.946902 4.777659 2.568473 0.677547 -0.645602 -0.918975 7.837475 -30.816513 5.476177 3.210464 -57.683778 -5.151278 6.291392 15.150304 -33.767538 0.825778 -3.597980 -7.675810 0.357986 27.696092 1.131946 4.215764 57.582587 7.047226 10.699291 -14.370886 26.470364 -6.399519 4.199723 7.519414 -4.517469 
-0.345036 2.701226 0.989230 -2.028159 1.291460 84.802217 7.156259 6.915871 12.116019 -4.222717 3.561384 -6.218577 3.182831 14.265304 -9.648999 0.000000 -0.000000 0.000000 -6.920214 -5.322077 -0.624702 2.174136 -8.553480 16.123380 5.331553 -8.868866 -8.704681 0.000000 -0.000000 0.000000 1.533404 -1.424022 1.533870 0.111599 -1.239514 9.277271 -1.599837 -1.844501 0.931808 4.703427 2.430584 0.649181 -0.605247 -0.809281 8.066187 -30.787986 5.556341 3.305163 -57.730110 -5.222207 6.489846 15.250064 -33.802419 0.893605 -3.452364 -7.584315 0.046392 27.622059 1.100557 4.229748 57.653924 6.997253 10.848364 -14.480510 26.524565 -6.386061 4.213811 7.470886 -4.706159 
-0.345049 2.701104 0.989224 -2.031829 1.282934 84.793016 7.150577 6.913861 12.137555 -4.222831 3.559220 -6.230354 3.187744 14.273172 -9.647008 0.000000 -0.000000 0.000000 -6.925314 -5.312567 -0.619089 2.164687 -8.548993 16.140839 5.350060 -8.882048 -8.710903 0.000000 -0.000000 0.000000 1.523389 -1.424871 1.518139 0.116411 -1.237423 9.296646 -1.601871 -1.833026 0.930006 4.700578 2.409103 0.702045 -0.607339 -0.833795 8.201151 -30.781597 5.570507 3.318314 -57.736480 -5.239140 6.503803 15.263016 -33.799710 0.895734 -3.447529 -7.602599 0.037015 27.625284 1.085456 4.229178 57.642670 6.979275 10.847875 -14.480965 26.523357 -6.383788 4.212473 7.476984 -4.712663 
-0.345094 2.701015 0.989213 -2.017256 1.284016 84.790403 7.155851 6.909044 12.135778 -4.221123 3.551111 -6.222986 3.189273 14.273510 -9.652901 0.000000 -0.000000 0.000000 -6.918170 -5.319033 -0.616119 2.155100 -8.552706 16.151181 5.347566 -8.887553 -8.719592 0.000000 -0.000000 0.000000 1.519858 -1.426586 1.505864 0.123078 -1.239912 9.299119 -1.599246 -1.839354 0.935574 4.700169 2.381305 0.750450 -0.617608 -0.849956 8.391110 -30.784629 5.587935 3.346325 -57.732307 -5.261568 6.509257 15.260055 -33.805205 0.916184 -3.426756 -7.619303 0.007575 27.633625 1.062169 4.235659 57.635932 6.986747 10.852874 -14.469095 26.512766 -6.365788 4.211979 7.481431 -4.735981 
-0.345120 2.700982 0.989209 -2.013308 1.286957 84.793224 7.159046 6.907260 12.133013 -4.217856 3.546046 -6.222299 3.190376 14.275490 -9.654225 0.000000 -0.000000 0.000000 -6.911030 -5.316031 -0.621000 2.151477 -8.556662 16.159166 5.344911 -8.891759 -8.722279 0.000000 -0.000000 0.000000 1.517624 -1.428757 1.500687 0.130732 -1.241853 9.298180 -1.596275 -1.835266 0.930098 4.703012 2.356900 0.782688 -0.630008 -0.856436 8.486901 -30.789792 5.599631 3.353967 -57.731026 -5.266149 6.518430 15.259653 -33.800275 0.920536 -3.414474 -7.617220 -0.000625 27.638580 1.046265 4.227252 57.634836 6.971868 10.853937 -14.467109 26.505674 -6.353725 4.204174 7.477185 -4.732634 
-0.345204 2.700970 0.989206 -2.014451 1.293810 84.808400 7.172249 6.899642 12.110853 -4.223752 3.548279 -6.212544 3.191704 14.281323 -9.646384 0.000000 -0.000000 0.000000 -6.889506 -5.296468 -0.647138 2.141500 -8.568031 16.174995 5.336565 -8.906667 -8.729143 0.000000 -0.000000 0.000000 1.517353 -1.427403 1.485822 0.137961 -1.242931 9.281171 -1.592738 -1.846841 0.922498 4.706115 2.335472 0.841422 -0.654099 -0.856497 8.624646 -30.797953 5.629953 3.367738 -57.726088 -5.266099 6.527520 15.272875 -33.798991 0.922303 -3.390320 -7.604013 -0.024781 27.653440 1.027732 4.239928 57.637661 6.969875 10.866135 -14.472031 26.502291 -6.345333 4.192684 7.469975 -4.743483 
-0.345222 2.700813 0.989186 -2.008605 1.290468 84.800267 7.171352 6.892170 12.127004 -4.222392 3.553631 -6.217547 3.185020 14.274970 -9.646359 0.000000 -0.000000 0.000000 -6.899427 -5.301929 -0.617534 2.155251 -8.561447 16.156325 5.340997 -8.908397 -8.733197 0.000000 -0.000000 0.000000 1.526608 -1.436311 1.450933 0.131198 -1.241547 9.285539 -1.601064 -1.860314 0.950217 4.714077 2.331054 0.865968 -0.685194 -0.865910 8.766827 -30.792589 5.663798 3.381902 -57.725465 -5.286957 6.517206 15.259720 -33.798746 0.964259 -3.403459 -7.610105 -0.040697 27.665797 0.999336 4.261396 57.645151 7.010001 10.886560 -14.470535 26.509996 -6.336399 4.200264 7.462618 -4.753304 
-0.345269 2.700740 0.989165 -2.003955 1.290459 84.799391 7.174821 6.888615 12.127113 -4.220461 3.550229 -6.210912 3.186999 14.279114 -9.651787 0.000000 -0.000000 0.000000 -6.898383 -5.306694 -0.612090 2.158848 -8.557149 16.159763 5.344287 -8.908704 -8.740682 0.000000 -0.000000 0.000000 1.522337 -1.436980 1.448066 0.136366 -1.242465 9.281532 -1.596387 -1.860851 0.949516 4.708683 2.308665 0.871818 -0.700893 -0.865089 8.870472 -30.795295 5.688105 3.385332 -57.721795 -5.285308 6.521360 15.244977 -33.802430 0.988802 -3.392296 -7.609458 -0.055858 27.677118 0.970220 4.258072 57.642027 7.001940 10.889654 -14.454422 26.531127 -6.317987 4.195553 7.465928 -4.756492 
-0.345314 2.700698 0.989162 -2.000501 1.288662 84.792063 7.177870 6.892338 12.131968 -4.219995 3.544766 -6.204127 3.189882 14.276130 -9.655683 0.000000 -0.000000 0.000000 -6.900858 -5.320488 -0.607964 2.159645 -8.551460 16.172179 5.349290 -8.902780 -8.749989 0.000000 -0.000000 0.000000 1.511056 -1.434195 1.436919 0.142314 -1.243761 9.302192 -1.590170 -1.861378 0.963219 4.710921 2.307712 0.866701 -0.714746 -0.872162 8.915409 -30.798529 5.695348 3.384998 -57.725276 -5.301575 6.513776 15.247083 -33.793718 0.981358 -3.371249 -7.615487 -0.060839 27.690394 0.969233 4.262949 57.634687 7.013468 10.892620 -14.447871 26.531651 -6.323987 4.177963 7.471764 -4.751022 
-0.345345 2.700716 0.989173 -1.999286 1.289242 84.790721 7.180292 6.889226 12.130689 -4.220778 3.548788 -6.203616 3.188263 14.274092 -9.652314 0.000000 -0.000000 0.000000 -6.899083 -5.318647 -0.608459 2.161590 -8.552688 16.173295 5.348075 -8.904637 -8.751224 0.000000 -0.000000 0.000000 1.509980 -1.434433 1.440496 0.142307 -1.241581 9.304177 -1.588236 -1.864229 0.975502 4.715182 2.316454 0.864489 -0.717658 -0.873853 8.924811 -30.798882 5.695685 3.389664 -57.725275 -5.307823 6.508007 15.249013 -33.791281 0.981480 -3.368185 -7.619164 -0.067114 27.696719 0.975813 4.273794 57.636853 7.026039 10.898422 -14.450986 26.520820 -6.326896 4.171621 7.467866 -4.753538 
-0.345360 2.700725 0.989179 -1.998359 1.289680 84.792621 7.180864 6.889058 12.128976 -4.220757 3.548686 -6.204421 3.188123 14.273962 -9.651886 0.000000 -0.000000 0.000000 -6.899032 -5.318805 -0.608619 2.162627 -8.552867 16.172289 5.348014 -8.904732 -8.751052 0.000000 -0.000000 0.000000 1.509306 -1.433563 1.444393 0.142449 -1.240716 9.306021 -1.587794 -1.863300 0.978149 4.715613 2.316260 0.863648 -0.717346 -0.873760 8.926377 -30.799265 5.696662 3.390550 -57.725462 -5.306875 6.508126 15.248188 -33.790605 0.982563 -3.367769 -7.618934 -0.067549 27.698373 0.975195 4.275274 57.638704 7.025136 10.899045 -14.449940 26.519113 -6.325933 4.171435 7.467321 -4.753906 
-0.345387 2.700759 0.989203 -1.997529 1.290133 84.794377 7.181310 6.888647 12.126502 -4.220716 3.548613 -6.205628 3.187759 14.273706 -9.651218 0.000000 -0.000000 0.000000 -6.899026 -5.319830 -0.607892 2.164439 -8.553015 16.169131 5.348109 -8.904635 -8.750591 0.000000 -0.000000 0.000000 1.508483 -1.432258 1.446679 0.141638 -1.239474 9.305670 -1.588149 -1.862321 0.979386 4.715485 2.316956 0.861493 -0.717466 -0.872883 8.928007 -30.798952 5.697176 3.391008 -57.725146 -5.306800 6.508064 15.247692 -33.790174 0.983905 -3.367120 -7.618722 -0.068298 27.699447 0.974768 4.277118 57.641296 7.024857 10.900063 -14.448709 26.516995 -6.324777 4.170973 7.466394 -4.754808 
-0.345400 2.700772 0.989218 -1.996728 1.289632 84.796573 7.181963 6.888541 12.124711 -4.220514 3.548509 -6.206789 3.187618 14.273572 -9.650906 0.000000 -0.000000 0.000000 -6.898948 -5.320916 -0.608400 2.165688 -8.553160 16.165882 5.348405 -8.904249 -8.750413 0.000000 -0.000000 0.000000 1.508153 -1.429963 1.448590 0.141282 -1.237212 9.305479 -1.588673 -1.860191 0.978900 4.714914 2.317635 0.859302 -0.717859 -0.872265 8.927399 -30.798167 5.697511 3.391312 -57.725129 -5.306549 6.508132 15.247799 -33.790026 0.984138 -3.367013 -7.618622 -0.068414 27.698729 0.974923 4.277790 57.641092 7.024317 10.900005 -14.448718 26.516002 -6.324650 4.170886 7.466054 -4.755087 
-0.345406 2.700825 0.989233 -1.996003 1.289036 84.800496 7.181988 6.886887 12.116967 -4.219923 3.549016 -6.207878 3.186492 14.273455 -9.648053 0.000000 -0.000000 0.000000 -6.899117 -5.322750 -0.608369 2.170604 -8.553141 16.153196 5.348945 -8.904457 -8.746285 0.000000 -0.000000 0.000000 1.510807 -1.428079 1.455186 0.139961 -1.234331 9.296300 -1.588539 -1.858256 0.977358 4.711800 2.319636 0.850975 -0.719633 -0.867516 8.931159 -30.796038 5.698139 3.391410 -57.727446 -5.307022 6.510792 15.246006 -33.790005 0.989719 -3.365520 -7.618384 -0.071962 27.694525 0.974402 4.276346 57.640703 7.026031 10.900915 -14.449595 26.512469 -6.324537 4.169561 7.464375 -4.759044 
-0.345389 2.700897 0.989250 -1.997379 1.290203 84.806411 7.179450 6.882676 12.102099 -4.219058 3.553688 -6.205644 3.184213 14.273974 -9.642672 0.000000 -0.000000 0.000000 -6.899835 -5.324981 -0.608790 2.178572 -8.550825 16.128820 5.349887 -8.904658 -8.735819 0.000000 -0.000000 0.000000 1.518927 -1.427427 1.464710 0.138422 -1.231582 9.278096 -1.586726 -1.858031 0.977291 4.705845 2.324184 0.840532 -0.724953 -0.857142 8.942573 -30.792115 5.699875 3.391800 -57.734978 -5.310494 6.515889 15.243517 -33.789281 1.000135 -3.362901 -7.617676 -0.081405 27.686103 0.974953 4.275486 57.639891 7.036112 10.904293 -14.451443 26.503227 -6.326718 4.167045 7.459840 -4.766007 
-0.345331 2.701013 0.989269 -2.003813 1.292096 84.814437 7.172550 6.876123 12.079064 -4.217083 3.564700 -6.197150 3.184642 14.277813 -9.635896 0.000000 -0.000000 0.000000 -6.903134 -5.322374 -0.615332 2.191020 -8.544498 16.099427 5.352795 -8.905488 -8.715705 0.000000 -0.000000 0.000000 1.534050 -1.430191 1.481769 0.135132 -1.227182 9.246276 -1.584189 -1.859426 0.981300 4.697709 2.327715 0.827823 -0.733656 -0.839610 8.972224 -30.786524 5.704993 3.391241 -57.751367 -5.320334 6.525834 15.239253 -33.785389 1.016943 -3.362355 -7.617584 -0.099680 27.671159 0.977342 4.271851 57.642684 7.061250 10.913964 -14.454526 26.481179 -6.333773 4.164070 7.452244 -4.778396 
